HIERARCHY
ROOT Hips
{
    OFFSET   0.000000   0.000000   0.000000
    CHANNELS 6 Xposition Yposition Zposition Zrotation Xrotation Yrotation
    JOINT Chest
    {
        OFFSET   0.000000   8.007240   0.000000
        CHANNELS 3 Zrotation Xrotation Yrotation
        JOINT Chest2
        {
            OFFSET   0.000000  22.077100   0.000000
            CHANNELS 3 Zrotation Xrotation Yrotation
            JOINT Neck
            {
                OFFSET   0.000000  23.254800   0.000000
                CHANNELS 3 Zrotation Xrotation Yrotation
                JOINT Head
                {
                    OFFSET   0.000000  14.370000   1.956600
                    CHANNELS 3 Zrotation Xrotation Yrotation
                    End Site
                    {
                        OFFSET   0.000000  19.566000   0.000000
                    }
                }
            }
            JOINT LeftCollar
            {
                OFFSET   3.911900  19.017000  -0.467064
                CHANNELS 3 Zrotation Xrotation Yrotation
                JOINT LeftShoulder
                {
                    OFFSET  10.383700   0.000000   0.000000
                    CHANNELS 3 Zrotation Xrotation Yrotation
                    JOINT LeftElbow
                    {
                        OFFSET  26.662100   0.001476   0.000517
                        CHANNELS 3 Zrotation Xrotation Yrotation
                        JOINT LeftWrist
                        {
                            OFFSET  28.869000  -0.000025  -0.000106
                            CHANNELS 3 Zrotation Xrotation Yrotation
                            JOINT LeftFinger0
                            {
                                OFFSET   2.044660  -2.323460   3.252850
                                CHANNELS 3 Zrotation Xrotation Yrotation
                                JOINT LeftFinger01
                                {
                                    OFFSET   3.088130   0.000000   0.000000
                                    CHANNELS 3 Zrotation Xrotation Yrotation
                                    JOINT LeftFinger02
                                    {
                                        OFFSET   2.639460   0.000000   0.000000
                                        CHANNELS 3 Zrotation Xrotation Yrotation
                                        End Site
                                        {
                                            OFFSET   2.582190   0.000000   0.000000
                                        }
                                    }
                                }
                            }
                            JOINT LeftFinger1
                            {
                                OFFSET   8.364480   0.000000   3.252850
                                CHANNELS 3 Zrotation Xrotation Yrotation
                                JOINT LeftFinger11
                                {
                                    OFFSET   4.646930   0.000000   0.000000
                                    CHANNELS 3 Zrotation Xrotation Yrotation
                                    JOINT LeftFinger12
                                    {
                                        OFFSET   2.323460   0.000000   0.000000
                                        CHANNELS 3 Zrotation Xrotation Yrotation
                                        End Site
                                        {
                                            OFFSET   2.273050   0.000000   0.000000
                                        }
                                    }
                                }
                            }
                            JOINT LeftFinger2
                            {
                                OFFSET   8.364490   0.000015   1.078090
                                CHANNELS 3 Zrotation Xrotation Yrotation
                                JOINT LeftFinger21
                                {
                                    OFFSET   5.111620   0.000000   0.000000
                                    CHANNELS 3 Zrotation Xrotation Yrotation
                                    JOINT LeftFinger22
                                    {
                                        OFFSET   2.788160   0.000016   0.000000
                                        CHANNELS 3 Zrotation Xrotation Yrotation
                                        End Site
                                        {
                                            OFFSET   2.727660   0.000000   0.000000
                                        }
                                    }
                                }
                            }
                            JOINT LeftFinger3
                            {
                                OFFSET   7.899780   0.000017  -1.078090
                                CHANNELS 3 Zrotation Xrotation Yrotation
                                JOINT LeftFinger31
                                {
                                    OFFSET   4.646930   0.000000   0.000000
                                    CHANNELS 3 Zrotation Xrotation Yrotation
                                    JOINT LeftFinger32
                                    {
                                        OFFSET   2.323470   0.000000   0.000000
                                        CHANNELS 3 Zrotation Xrotation Yrotation
                                        End Site
                                        {
                                            OFFSET   2.273050   0.000000   0.000000
                                        }
                                    }
                                }
                            }
                            JOINT LeftFinger4
                            {
                                OFFSET   7.435090   0.000000  -3.252850
                                CHANNELS 3 Zrotation Xrotation Yrotation
                                JOINT LeftFinger41
                                {
                                    OFFSET   3.717550   0.000000   0.000000
                                    CHANNELS 3 Zrotation Xrotation Yrotation
                                    JOINT LeftFinger42
                                    {
                                        OFFSET   1.858770   0.000000   0.000000
                                        CHANNELS 3 Zrotation Xrotation Yrotation
                                        End Site
                                        {
                                            OFFSET   1.818440   0.000000   0.000000
                                        }
                                    }
                                }
                            }
                        }
                    }
                }
            }
            JOINT RightCollar
            {
                OFFSET  -3.911900  19.017000  -0.467063
                CHANNELS 3 Zrotation Xrotation Yrotation
                JOINT RightShoulder
                {
                    OFFSET -10.383700   0.000019   0.000000
                    CHANNELS 3 Zrotation Xrotation Yrotation
                    JOINT RightElbow
                    {
                        OFFSET -26.662100   0.001175   0.000102
                        CHANNELS 3 Zrotation Xrotation Yrotation
                        JOINT RightWrist
                        {
                            OFFSET -28.869000   0.000016  -0.000079
                            CHANNELS 3 Zrotation Xrotation Yrotation
                            JOINT RightFinger0
                            {
                                OFFSET  -2.044660  -2.323490   3.252850
                                CHANNELS 3 Zrotation Xrotation Yrotation
                                JOINT RightFinger01
                                {
                                    OFFSET  -3.088140   0.000000   0.000000
                                    CHANNELS 3 Zrotation Xrotation Yrotation
                                    JOINT RightFinger02
                                    {
                                        OFFSET  -2.639460   0.000000   0.000000
                                        CHANNELS 3 Zrotation Xrotation Yrotation
                                        End Site
                                        {
                                            OFFSET  -2.582190   0.000000   0.000000
                                        }
                                    }
                                }
                            }
                            JOINT RightFinger1
                            {
                                OFFSET  -8.364480   0.000000   3.252850
                                CHANNELS 3 Zrotation Xrotation Yrotation
                                JOINT RightFinger11
                                {
                                    OFFSET  -4.646930   0.000000   0.000000
                                    CHANNELS 3 Zrotation Xrotation Yrotation
                                    JOINT RightFinger12
                                    {
                                        OFFSET  -2.323470   0.000000   0.000000
                                        CHANNELS 3 Zrotation Xrotation Yrotation
                                        End Site
                                        {
                                            OFFSET  -2.273050   0.000000   0.000000
                                        }
                                    }
                                }
                            }
                            JOINT RightFinger2
                            {
                                OFFSET  -8.364480   0.000000   1.078090
                                CHANNELS 3 Zrotation Xrotation Yrotation
                                JOINT RightFinger21
                                {
                                    OFFSET  -5.111620   0.000000   0.000000
                                    CHANNELS 3 Zrotation Xrotation Yrotation
                                    JOINT RightFinger22
                                    {
                                        OFFSET  -2.788160   0.000000   0.000000
                                        CHANNELS 3 Zrotation Xrotation Yrotation
                                        End Site
                                        {
                                            OFFSET  -2.727660   0.000000   0.000000
                                        }
                                    }
                                }
                            }
                            JOINT RightFinger3
                            {
                                OFFSET  -7.899780   0.000000  -1.078090
                                CHANNELS 3 Zrotation Xrotation Yrotation
                                JOINT RightFinger31
                                {
                                    OFFSET  -4.646930   0.000000   0.000000
                                    CHANNELS 3 Zrotation Xrotation Yrotation
                                    JOINT RightFinger32
                                    {
                                        OFFSET  -2.323470   0.000000   0.000000
                                        CHANNELS 3 Zrotation Xrotation Yrotation
                                        End Site
                                        {
                                            OFFSET  -2.273050   0.000000   0.000000
                                        }
                                    }
                                }
                            }
                            JOINT RightFinger4
                            {
                                OFFSET  -7.435090   0.000000  -3.252850
                                CHANNELS 3 Zrotation Xrotation Yrotation
                                JOINT RightFinger41
                                {
                                    OFFSET  -3.717550   0.000000   0.000000
                                    CHANNELS 3 Zrotation Xrotation Yrotation
                                    JOINT RightFinger42
                                    {
                                        OFFSET  -1.858770   0.000000   0.000000
                                        CHANNELS 3 Zrotation Xrotation Yrotation
                                        End Site
                                        {
                                            OFFSET  -1.818440   0.000000   0.000000
                                        }
                                    }
                                }
                            }
                        }
                    }
                }
            }
        }
    }
    JOINT LeftHip
    {
        OFFSET   9.783040   0.000000   0.000000
        CHANNELS 3 Zrotation Xrotation Yrotation
        JOINT LeftKnee
        {
            OFFSET   0.000032 -41.789100  -0.002222
            CHANNELS 3 Zrotation Xrotation Yrotation
            JOINT LeftAnkle
            {
                OFFSET   0.000087 -41.133200  -0.000135
                CHANNELS 3 Zrotation Xrotation Yrotation
                JOINT LeftToe
                {
                    OFFSET   0.000000  -6.358960  14.674500
                    CHANNELS 3 Zrotation Xrotation Yrotation
                    End Site
                    {
                        OFFSET   0.000000   0.000000   3.913200
                    }
                }
            }
        }
    }
    JOINT RightHip
    {
        OFFSET  -9.783040   0.000000   0.000000
        CHANNELS 3 Zrotation Xrotation Yrotation
        JOINT RightKnee
        {
            OFFSET   0.000047 -41.789100  -0.000896
            CHANNELS 3 Zrotation Xrotation Yrotation
            JOINT RightAnkle
            {
                OFFSET  -0.000117 -41.133300  -0.000248
                CHANNELS 3 Zrotation Xrotation Yrotation
                JOINT RightToe
                {
                    OFFSET   0.000000  -6.358970  14.674500
                    CHANNELS 3 Zrotation Xrotation Yrotation
                    End Site
                    {
                        OFFSET   0.000000   0.000000   3.913200
                    }
                }
            }
        }
    }
}
MOTION
Frames: 5
Frame Time:   0.016667
 -0.225412  89.534700   1.315450  -1.652920  -1.582410  -4.083520   1.017390   1.557620   0.279082   2.028310   3.119910   0.530757   1.883710   0.585942  -0.018899   3.106410   1.187910   6.612830  -3.109270   2.122130  -0.524273 -71.975100  16.450000  -4.084110  -3.288640  -6.301570  -7.595880   2.098950  -6.594840   8.933880  36.315300  19.647400 -61.661300 -11.710600   0.002764   0.000600  -0.855303  -0.005058  -0.000919 -23.821400   4.234630  -9.493520 -19.775800   0.002459  -0.000136 -13.843100  -0.008395  -0.000060 -26.937500   2.997040  -5.876120 -27.346000   0.004830   0.001196 -18.204200  -0.006889   0.001779 -25.754500   0.734159  -1.521050 -25.763700   0.004242   0.002181 -17.158700   0.002241   0.002243 -27.461000   0.744539  -1.431900 -41.215400  -0.007849   0.003560 -27.442600  -0.005792   0.003904   3.535390   0.867777   8.125710  74.849300  11.393400   1.433620   2.545150   0.112686   2.949060  -8.019510 -14.058100   6.249980 -45.286000  37.171500  77.989400  15.620800   0.003541  -0.005709   2.810390   0.003336  -0.003389  20.913200   1.389860   3.631880  17.146800   0.001447   0.002734  12.002800   0.008692  -0.001046  23.105700   1.527920   3.576050  23.153400   0.001798  -0.007666  15.420100   0.004795  -0.002709  23.246000   1.154700   2.664870  23.273000   0.000000   0.000995  15.499800  -0.000840  -0.002753  28.105000   1.367320   2.558250  42.203300  -0.001740   0.006638  28.107400  -0.005479  -0.002474   2.476200   5.521470   3.130260   1.311680   0.784867   7.591810  -3.412810  -3.330390  12.691600  -0.000000   0.000000   0.000000   0.766095   0.935281  -4.972570   1.784610   3.434010  -3.817160  -6.217250  -1.945110  -1.954070  -0.000000   0.000000   0.000000
 -0.209424  89.534600   1.331870  -1.653300  -1.578590  -4.110490   1.017170   1.550700   0.291636   2.027540   3.106310   0.555994   1.891690   0.585982  -0.018909   3.114760   1.187470   6.588630  -3.097920   2.131530  -0.524279 -71.995600  16.393500  -4.066060  -3.287050  -6.301650  -7.581340   2.093610  -6.561110   8.927870  36.328400  19.699100 -61.703900 -11.674100   0.002769   0.000607  -0.837082  -0.005064  -0.000933 -23.819200   4.240840  -9.509690 -19.775800   0.002460  -0.000133 -13.843100  -0.008399  -0.000060 -26.934400   3.011750  -5.905250 -27.343600   0.004834   0.001199 -18.205300  -0.006899   0.001784 -25.756000   0.745330  -1.544810 -25.765800   0.004248   0.002186 -17.160100   0.002243   0.002249 -27.464100   0.757058  -1.456300 -41.216200  -0.007858   0.003568 -27.446200  -0.005790   0.003909   3.538840   0.882773   8.099050  74.867900  11.389800   1.409030   2.552300   0.100726   2.927700  -7.988260 -14.037300   6.261590 -45.291000  37.172100  77.991500  15.599800   0.003535  -0.005707   2.799900   0.003332  -0.003369  20.912200   1.395160   3.645470  17.146500   0.001447   0.002735  12.002500   0.008692  -0.001044  23.108000   1.533950   3.589340  23.155900   0.001795  -0.007663  15.421800   0.004794  -0.002704  23.250500   1.154690   2.672900  23.277400   0.000000   0.000995  15.502800  -0.000839  -0.002752  28.131500   1.372590   2.565490  42.243400  -0.001740   0.006639  28.134200  -0.005481  -0.002469   2.465910   5.531380   3.136690   1.306170   0.785871   7.606240  -3.413310  -3.340790  12.698700   0.000000   0.000000   0.000000   0.755909   0.958697  -4.972590   1.785290   3.417480  -3.806030  -6.207230  -1.949990  -1.937290  -0.000000   0.000000  -0.000000
 -0.182133  89.534600   1.359030  -1.653970  -1.573230  -4.154230   1.017060   1.539330   0.312182   2.026820   3.083940   0.597292   1.902560   0.586022  -0.018929   3.126460   1.184030   6.554630  -3.077980   2.147730  -0.524307 -72.030400  16.299900  -4.039310  -3.284530  -6.301860  -7.558440   2.091430  -6.527410   8.920180  36.335600  19.750400 -61.750000 -11.637700   0.002784   0.000621  -0.818860  -0.005083  -0.000946 -23.815900   4.250310  -9.531750 -19.775800   0.002466  -0.000129 -13.843100  -0.008411  -0.000060 -26.931200   3.026460  -5.934380 -27.341300   0.004846   0.001210 -18.209300  -0.006924   0.001795 -25.760300   0.760603  -1.575700 -25.770800   0.004263   0.002199 -17.163400   0.002249   0.002261 -27.471100   0.771764  -1.483970 -41.221600  -0.007883   0.003589 -27.453600  -0.005787   0.003925   3.544150   0.907755   8.052850  74.896800  11.378000   1.370230   2.564260   0.082998   2.895700  -7.943810 -14.004900   6.280840 -45.305200  37.172700  77.993600  15.563200   0.003511  -0.005703   2.781590   0.003322  -0.003332  20.908700   1.403350   3.667990  17.143900   0.001446   0.002742  12.000700   0.008692  -0.001042  23.109800   1.543340   3.611390  23.158400   0.001782  -0.007653  15.423500   0.004792  -0.002690  23.254900   1.154680   2.684810  23.281900   0.000000   0.000997  15.505800  -0.000839  -0.002751  28.160400   1.380150   2.576240  42.287200  -0.001741   0.006644  28.163300  -0.005484  -0.002458   2.448930   5.546320   3.146490   1.295610   0.792569   7.630280  -3.414260  -3.360480  12.710200  -0.000000   0.000000   0.000000   0.737187   0.982113  -4.972580   1.785580   3.400970  -3.788120  -6.190510  -1.958620  -1.913740  -0.000000   0.000000   0.000000
 -0.158820  89.534600   1.380430  -1.654570  -1.570900  -4.187410   1.017600   1.530290   0.328331   2.027490   3.066170   0.629746   1.905630   0.581509  -0.018965   3.130910   1.174010   6.539660  -3.060110   2.162020  -0.525991 -72.060400  16.223900  -4.022770  -3.279590  -6.302180  -7.543580   2.103010  -6.532470   8.918290  36.329200  19.749200 -61.755200 -11.652000   0.002810   0.000637  -0.825989  -0.005114  -0.000945 -23.826900   4.255160  -9.536710 -19.785500   0.002478  -0.000128 -13.849800  -0.008431  -0.000030 -26.931900   3.026390  -5.934050 -27.351700   0.004866   0.001227 -18.217600  -0.006965   0.001809 -25.768400   0.765841  -1.584030 -25.779000   0.004285   0.002220 -17.168900   0.002260   0.002277 -27.481200   0.774316  -1.487780 -41.236300  -0.007923   0.003622 -27.463800  -0.005782   0.003951   3.546400   0.928195   8.010200  74.915600  11.353500   1.343390   2.576270   0.073609   2.878220  -7.922280 -13.979100   6.299730 -45.353100  37.174600  77.980100  15.525200   0.003462  -0.005697   2.762590   0.003310  -0.003295  20.880500   1.408140   3.686150  17.120800   0.001443   0.002762  11.984600   0.008689  -0.001040  23.087200   1.549150   3.629220  23.136200   0.001756  -0.007635  15.408700   0.004797  -0.002667  23.241800   1.155300   2.689910  23.268800   0.000000   0.001002  15.497100  -0.000843  -0.002750  28.161900   1.382790   2.580760  42.289600  -0.001742   0.006653  28.164900  -0.005489  -0.002445   2.435290   5.553580   3.151930   1.284220   0.810653   7.653290  -3.415010  -3.382700  12.717400   0.000000   0.000000   0.000000   0.718797   0.973842  -4.966250   1.781610   3.417530  -3.775360  -6.176970  -1.966780  -1.903400   0.000000   0.000000   0.000000
 -0.134981  89.534500   1.401490  -1.655250  -1.570090  -4.217610   1.018360   1.522020   0.343014   2.028660   3.049890   0.659249   1.906720   0.574159  -0.018989   3.133560   1.161310   6.534470  -3.040420   2.176620  -0.527656 -72.090000  16.153900  -4.014330  -3.270720  -6.303110  -7.529100   2.116440  -6.546340   8.918260  36.328600  19.748400 -61.757000 -11.679000   0.002841   0.000661  -0.839481  -0.005156  -0.000944 -23.847900   4.260750  -9.540550 -19.803000   0.002493  -0.000127 -13.862100  -0.008458   0.000000 -26.933600   3.025940  -5.931730 -27.367400   0.004891   0.001249 -18.226700  -0.007018   0.001827 -25.776900   0.766976  -1.585220 -25.787500   0.004315   0.002247 -17.174500   0.002274   0.002297 -27.491100   0.774681  -1.488320 -41.251800  -0.007974   0.003664 -27.473700  -0.005775   0.003983   3.550210   0.947656   7.969410  74.931300  11.327200   1.319880   2.583650   0.066540   2.863920  -7.913940 -13.964900   6.311000 -45.390700  37.180600  77.964800  15.495600   0.003398  -0.005689   2.747810   0.003295  -0.003247  20.854300   1.412910   3.703370  17.100000   0.001437   0.002790  11.970000   0.008685  -0.001037  23.064700   1.554840   3.646140  23.114100   0.001722  -0.007612  15.394000   0.004803  -0.002636  23.228500   1.158000   2.695940  23.255700   0.000000   0.001008  15.488300  -0.000848  -0.002748  28.163400   1.385730   2.586340  42.292100  -0.001745   0.006667  28.166500  -0.005495  -0.002428   2.422660   5.561630   3.157120   1.271130   0.830415   7.668750  -3.416310  -3.404780  12.726600  -0.000000   0.000000  -0.000000   0.700144   0.965579  -4.954590   1.776110   3.434090  -3.762920  -6.163650  -1.974980  -1.899850   0.000000   0.000000   0.000000
